#!OML:ASF F:\VICON\USERDATA\INSTALL\Justin_Nancy\Justin_Nancy.ASF
:FULLY-SPECIFIED
:DEGREES
269
root 0.94615 17.4488 5.37175 0.264194 -1.69322 1.00223
lowerback 1.83195 -0.632354 -4.06161
upperback -1.33912 -0.927189 1.59065
thorax -2.31667 -0.383173 3.95579
lowerneck -15.6334 -3.18246 -9.99868
upperneck 24.8245 -3.37142 5.85852
head 10.864 -1.79013 3.34111
rclavicle 6.84565e-015 -2.14687e-014
rhumerus -36.2172 -19.5429 -76.1097
rradius 26.0948
rwrist 12.5047
rhand -16.5138 13.587
rfingers 7.12502
rthumb 9.70442 -16.1694
lclavicle 6.84565e-015 -2.14687e-014
lhumerus -25.8154 8.20817 81.3344
lradius 34.2673
lwrist -2.93791
lhand -15.8904 26.3644
lfingers 7.12502
lthumb 10.3058 56.0919
rfemur -11.4015 5.09341 22.112
rtibia 32.2369
rfoot -12.8699 -11.4483
rtoes -0.563045
lfemur -11.4086 -2.91608 -23.1173
ltibia 31.4994
lfoot -15.4259 4.29482
ltoes -0.461194
270
root 0.935389 17.4534 5.42222 0.260409 -1.7098 1.03404
lowerback 1.71872 -0.669788 -3.99603
upperback -1.37776 -0.97242 1.54149
thorax -2.28999 -0.407209 3.8678
lowerneck -15.7268 -3.23673 -10.0094
upperneck 24.6882 -3.47103 6.00065
head 10.8432 -1.81647 3.3778
rclavicle -1.92573e-015 -1.82882e-014
rhumerus -35.9553 -19.7102 -76.0825
rradius 25.7775
rwrist 12.8482
rhand -16.4816 14.0474
rfingers 7.12502
rthumb 9.73554 -15.7076
lclavicle -1.92573e-015 -1.82882e-014
lhumerus -25.8093 8.48796 81.2603
lradius 33.364
lwrist -3.38713
lhand -16.9674 23.005
lfingers 7.12502
lthumb 9.26681 52.7814
rfemur -11.1153 5.06082 22.1102
rtibia 32.0253
rfoot -12.8582 -11.3804
rtoes -0.737053
lfemur -11.0785 -2.98324 -23.1521
ltibia 31.3455
lfoot -15.5388 4.55576
ltoes -0.987122
271
root 0.92094 17.4609 5.46703 0.300094 -1.78575 0.962724
lowerback 1.54796 -0.711628 -3.97712
upperback -1.41888 -1.02044 1.6068
thorax -2.23086 -0.431684 3.92394
lowerneck -15.681 -3.19799 -9.98558
upperneck 24.5211 -3.42656 6.01651
head 10.7676 -1.79038 3.38256
rclavicle 1.59897e-014 -9.14409e-015
rhumerus -35.7861 -19.43 -76.1219
rradius 25.705
rwrist 12.7702
rhand -16.6176 14.8444
rfingers 7.12502
rthumb 9.60433 -14.9167
lclavicle 1.59897e-014 -9.14409e-015
lhumerus -26.022 9.13643 81.1865
lradius 32.6187
lwrist -4.0951
lhand -18.1447 23.7265
lfingers 7.12502
lthumb 8.13066 53.5501
rfemur -10.8738 4.94291 22.2253
rtibia 31.7669
rfoot -12.8607 -11.0706
rtoes -0.740824
lfemur -10.9389 -3.22661 -23.0474
ltibia 31.2797
lfoot -15.5581 4.85165
ltoes -0.116887
272
root 0.90885 17.4647 5.50659 0.312154 -1.82231 0.639397
lowerback 1.38291 -0.723886 -3.67733
upperback -1.43382 -1.02061 1.75602
thorax -2.15522 -0.436919 3.90654
lowerneck -15.5303 -3.18969 -10.0281
upperneck 24.2825 -3.42139 6.05439
head 10.6511 -1.7862 3.3999
rclavicle -6.89534e-015 3.97569e-015
rhumerus -35.7868 -19.054 -76.1328
rradius 26.0178
rwrist 12.3299
rhand -16.5769 14.4814
rfingers 7.12502
rthumb 9.64354 -15.2779
lclavicle -6.89534e-015 3.97569e-015
lhumerus -26.3903 9.51176 81.2603
lradius 32.3814
lwrist -4.31422
lhand -18.3107 24.5394
lfingers 7.12502
lthumb 7.97046 54.3692
rfemur -10.5851 4.77781 22.5996
rtibia 31.4565
rfoot -13.0027 -10.8337
rtoes -0.558948
lfemur -10.8374 -3.50076 -22.673
ltibia 31.3371
lfoot -15.6277 5.10847
ltoes 0.764012
273
root 0.894888 17.4653 5.54044 0.333912 -1.89412 0.274237
lowerback 1.33579 -0.722048 -3.33288
upperback -1.43356 -1.00573 1.89598
thorax -2.13254 -0.434343 3.85567
lowerneck -15.7893 -3.21341 -10.0755
upperneck 24.324 -3.42325 6.08245
head 10.7186 -1.78487 3.41788
rclavicle -1.34055e-014 -2.38542e-015
rhumerus -35.6319 -18.6607 -76.2783
rradius 26.3215
rwrist 11.8089
rhand -17.0593 13.5068
rfingers 7.12502
rthumb 9.17812 -16.2734
lclavicle -1.34055e-014 -2.38542e-015
lhumerus -26.505 9.64891 81.3685
lradius 32.073
lwrist -4.08369
lhand -18.0331 25.1232
lfingers 7.12502
lthumb 8.23841 54.9426
rfemur -10.3371 4.88538 23.0622
rtibia 31.2067
rfoot -13.0794 -10.8707
rtoes -0.481383
lfemur -10.7092 -3.74077 -22.2455
ltibia 31.3755
lfoot -15.6832 5.356
ltoes 1.22132
274
root 0.880775 17.4656 5.57904 0.357255 -1.94745 0.128197
lowerback 1.34013 -0.729621 -3.18447
upperback -1.51359 -1.01166 1.94525
thorax -2.21834 -0.436153 3.8241
lowerneck -16.0808 -3.22757 -10.1369
upperneck 24.4583 -3.43571 6.21436
head 10.8296 -1.77834 3.47704
rclavicle -8.28684e-015 1.19271e-015
rhumerus -35.5318 -18.5328 -76.3256
rradius 26.4311
rwrist 11.3704
rhand -17.221 12.8489
rfingers 7.12502
rthumb 9.02209 -16.9381
lclavicle -8.28684e-015 1.19271e-015
lhumerus -26.6851 9.8001 81.4208
lradius 31.5996
lwrist -4.04334
lhand -17.9417 24.8801
lfingers 7.12502
lthumb 8.32662 54.696
rfemur -10.0746 4.97498 23.2848
rtibia 31.0007
rfoot -13.1806 -10.9202
rtoes -0.334897
lfemur -10.5637 -3.72863 -22.0542
ltibia 31.3907
lfoot -15.8165 5.46997
ltoes 0.849769
275
root 0.869478 17.4634 5.62357 0.351983 -1.93186 0.457216
lowerback 1.37198 -0.723911 -3.45933
upperback -1.71312 -1.01484 1.83397
thorax -2.43972 -0.4258 3.8673
lowerneck -16.1466 -3.27698 -10.1005
upperneck 24.5609 -3.52429 6.25226
head 10.8887 -1.8116 3.47411
rclavicle 4.5969e-015 7.15625e-015
rhumerus -35.779 -18.5512 -76.2019
rradius 26.5624
rwrist 11.3005
rhand -17.1964 13.0616
rfingers 7.12502
rthumb 9.04586 -16.7245
lclavicle 4.5969e-015 7.15625e-015
lhumerus -27.0242 9.79395 81.5001
lradius 31.1186
lwrist -4.10878
lhand -17.6981 25.4152
lfingers 7.12502
lthumb 8.56168 55.2216
rfemur -9.84445 4.86544 22.9551
rtibia 30.8825
rfoot -13.2424 -10.8664
rtoes -0.57565
lfemur -10.3672 -3.69941 -22.4044
ltibia 31.3213
lfoot -15.93 5.53946
ltoes 0.611503
276
root 0.857292 17.4655 5.66348 0.456294 -1.94582 0.492229
lowerback 1.28932 -0.713133 -3.49326
upperback -1.90835 -0.999701 1.8392
thorax -2.59567 -0.410708 3.89249
lowerneck -15.8986 -3.38966 -10.0105
upperneck 24.3384 -3.6996 6.14229
head 10.7711 -1.8973 3.38904
rclavicle 2.04748e-014 -2.3059e-014
rhumerus -35.9422 -18.2886 -76.161
rradius 26.8076
rwrist 11.0616
rhand -17.2655 13.1076
rfingers 7.12502
rthumb 8.97918 -16.6813
lclavicle 2.04748e-014 -2.3059e-014
lhumerus -27.3326 9.81204 81.6406
lradius 30.6148
lwrist -4.04753
lhand -17.4482 26.1044
lfingers 7.12502
lthumb 8.80281 55.9008
rfemur -9.79483 4.79828 22.9591
rtibia 30.8301
rfoot -13.3258 -10.8687
rtoes -1.09377
lfemur -10.2699 -3.75616 -22.4148
ltibia 31.169
lfoot -16.0011 5.58659
ltoes 0.405137
277
root 0.8483 17.4659 5.70191 0.575384 -1.943 0.60711
lowerback 1.01155 -0.731754 -3.60935
upperback -1.95011 -1.01917 1.83324
thorax -2.47895 -0.420186 3.94813
lowerneck -15.411 -3.49505 -9.90824
upperneck 23.7231 -3.86678 5.99158
head 10.4615 -1.98154 3.28314
rclavicle -4.82053e-015 1.59028e-015
rhumerus -35.7058 -18.0055 -76.2435
rradius 26.8591
rwrist 10.6486
rhand -17.357 12.7883
rfingers 7.12502
rthumb 8.89088 -17.0044
lclavicle -4.82053e-015 1.59028e-015
lhumerus -27.5002 9.90776 81.787
lradius 30.1288
lwrist -4.18967
lhand -17.2501 25.8458
lfingers 7.12502
lthumb 8.994 55.6341
rfemur -9.77876 4.69883 22.8379
rtibia 30.8269
rfoot -13.5036 -10.8502
rtoes -1.07072
lfemur -10.1226 -3.90843 -22.535
ltibia 30.9473
lfoot -16.025 5.72612
ltoes 0.391191
278
root 0.843652 17.4653 5.74699 0.674786 -1.92447 0.821487
lowerback 0.680602 -0.776431 -3.71591
upperback -1.93155 -1.07152 1.76831
thorax -2.2679 -0.450248 3.9361
lowerneck -15.4165 -3.54285 -10.0233
upperneck 23.4861 -3.92706 6.11581
head 10.387 -2.002 3.33476
rclavicle -2.5345e-015 1.98785e-015
rhumerus -35.3429 -18.1894 -76.2342
rradius 26.8128
rwrist 10.6574
rhand -17.334 12.373
rfingers 7.12502
rthumb 8.91303 -17.4188
lclavicle -2.5345e-015 1.98785e-015
lhumerus -27.583 10.0086 81.9207
lradius 29.6542
lwrist -4.24937
lhand -17.3118 25.6664
lfingers 7.12502
lthumb 8.93444 55.4572
rfemur -9.68601 4.4652 22.574
rtibia 30.8133
rfoot -13.7588 -10.6519
rtoes -1.01393
lfemur -9.92496 -3.97661 -22.7806
ltibia 30.7492
lfoot -16.0598 5.76965
ltoes 0.533061
279
root 0.829853 17.4637 5.78974 0.688449 -1.94996 0.936552
lowerback 0.520861 -0.798702 -3.7889
upperback -1.98767 -1.09861 1.71563
thorax -2.23313 -0.46279 3.9211
lowerneck -15.7151 -3.54274 -10.0137
upperneck 23.7129 -3.9222 6.17398
head 10.5275 -1.99051 3.35756
rclavicle -2.03754e-015 -1.11319e-014
rhumerus -35.319 -18.3128 -76.1892
rradius 26.9738
rwrist 10.7771
rhand -17.3545 11.9203
rfingers 7.12502
rthumb 8.89325 -17.8723
lclavicle -2.03754e-015 -1.11319e-014
lhumerus -27.7879 9.96101 81.9887
lradius 29.146
lwrist -4.21577
lhand -16.9889 27.5012
lfingers 7.12502
lthumb 9.24602 57.2785
rfemur -9.5092 4.53919 22.5219
rtibia 30.7678
rfoot -13.8423 -10.7525
rtoes -0.984129
lfemur -9.69554 -3.9937 -22.8803
ltibia 30.6223
lfoot -16.1488 5.84804
ltoes 0.163011
280
root 0.813155 17.4581 5.82631 0.68217 -1.83499 0.94128
lowerback 0.397098 -0.866692 -3.82753
upperback -1.98984 -1.18541 1.73484
thorax -2.15638 -0.507118 3.96224
lowerneck -15.9199 -3.53209 -9.94833
upperneck 23.6879 -3.9132 6.21363
head 10.5559 -1.97222 3.36065
rclavicle 1.64246e-014 0
rhumerus -35.1928 -18.2496 -76.1616
rradius 27.0101
rwrist 10.7368
rhand -17.39 12.2187
rfingers 7.12502
rthumb 8.85899 -17.5754
lclavicle 1.64246e-014 0
lhumerus -27.9676 10.1583 82.1013
lradius 28.6708
lwrist -4.46608
lhand -16.6153 28.8176
lfingers 7.12502
lthumb 9.60651 58.5786
rfemur -9.28032 4.7068 22.6272
rtibia 30.6634
rfoot -13.8579 -11.0053
rtoes -0.475988
lfemur -9.52887 -3.89794 -22.8234
ltibia 30.5917
lfoot -16.2466 5.75438
ltoes -1.04976
281
root 0.802467 17.4583 5.8556 0.78817 -1.77657 0.711596
lowerback 0.223049 -0.916955 -3.5917
upperback -1.92535 -1.24134 1.81648
thorax -1.98897 -0.543551 3.91018
lowerneck -16.2195 -3.56937 -10.0168
upperneck 23.5054 -3.96287 6.41991
head 10.557 -1.96963 3.43528
rclavicle 9.54166e-015 1.63003e-014
rhumerus -34.7585 -18.2485 -76.2316
rradius 27.0285
rwrist 10.5337
rhand -17.2399 13.0147
rfingers 7.12502
rthumb 9.00382 -16.7731
lclavicle 9.54166e-015 1.63003e-014
lhumerus -28.1262 10.3087 82.2693
lradius 28.5487
lwrist -4.57031
lhand -16.3735 29.16
lfingers 7.12502
lthumb 9.83979 58.9101
rfemur -9.19339 4.81274 22.9536
rtibia 30.5128
rfoot -13.828 -11.1823
rtoes -0.435527
lfemur -9.54192 -3.97498 -22.5291
ltibia 30.6394
lfoot -16.3168 5.73853
ltoes -0.554582
282
root 0.786772 17.4635 5.87835 0.947875 -1.94712 0.38857
lowerback 0.106115 -0.879411 -3.35657
upperback -1.95267 -1.18277 1.93755
thorax -1.95855 -0.517397 3.89999
lowerneck -16.3532 -3.60644 -9.95574
upperneck 23.3148 -4.00977 6.41624
head 10.5161 -1.98147 3.41233
rclavicle 8.54774e-015 -2.38542e-015
rhumerus -34.4788 -18.1261 -76.3571
rradius 27.1997
rwrist 10.3842
rhand -17.1991 13.0951
rfingers 7.12502
rthumb 9.04324 -16.6911
lclavicle 8.54774e-015 -2.38542e-015
lhumerus -28.283 10.6322 82.3469
lradius 28.1235
lwrist -4.83388
lhand -16.0354 28.6457
lfingers 7.12502
lthumb 10.166 58.3801
rfemur -9.21739 5.33239 23.4172
rtibia 30.3488
rfoot -13.69 -11.5166
rtoes -0.487282
lfemur -9.66971 -4.13831 -22.1091
ltibia 30.7118
lfoot -16.3455 5.90052
ltoes 1.06891
